<svg xmlns="http://www.w3.org/2000/svg" version="1.1" xmlns:xlink="http://www.w3.org/1999/xlink" xmlns:svgjs="http://svgjs.com/svgjs" width="2560" height="2197" preserveAspectRatio="none" viewBox="0 0 2560 2197"><g mask="url(&quot;#SvgjsMask1081&quot;)" fill="none"><rect width="2560" height="2197" x="0" y="0" fill="#0e2a47"></rect><path d="M0,907.387C222.621,918.307,451.629,1113.913,647.439,1007.434C840.977,902.19,810.68,612.345,906.959,414.194C1006.424,209.487,1213.84,51.688,1222.334,-175.745C1231.27,-415.007,1131.731,-666.393,953.279,-826.021C780.318,-980.736,527.179,-1002.421,295.134,-1005.135C102.448,-1007.388,-56.018,-868.125,-246.662,-840.054C-483.022,-805.252,-765.955,-975.961,-948.639,-822.001C-1125.245,-673.163,-1091.728,-381.793,-1062.225,-152.725C-1036.981,43.276,-871.481,180.881,-795.953,363.499C-716.377,555.904,-779.778,828.392,-607.868,945.861C-436.772,1062.773,-206.976,897.235,0,907.387" fill="#0b2239"></path><path d="M2560 3063.4610000000002C2765.704 3048.804 2969.334 3207.2200000000003 3162.051 3133.809 3363.791 3056.9610000000002 3498.243 2862.676 3594.441 2669.413 3692.737 2471.933 3758.524 2246.899 3710.703 2031.554 3664.179 1822.048 3479.342 1684.351 3339.536 1521.528 3199.023 1357.883 3099.069 1125.809 2889.428 1075.072 2680.333 1024.467 2496.142 1216.946 2286.857 1266.759 2061.516 1320.394 1775.9009999999998 1211.498 1615.23 1378.3519999999999 1455.697 1544.024 1560.54 1821.004 1533.241 2049.374 1506.762 2270.882 1390.635 2487.715 1457.166 2700.648 1526.717 2923.245 1678.636 3150.842 1900.1660000000002 3223.721 2119.614 3295.915 2329.566 3079.88 2560 3063.4610000000002" fill="#113255"></path></g><defs><mask id="SvgjsMask1081"><rect width="2560" height="2197" fill="#ffffff"></rect></mask></defs></svg>