<svg xmlns="http://www.w3.org/2000/svg" version="1.1" xmlns:xlink="http://www.w3.org/1999/xlink" xmlns:svgjs="http://svgjs.com/svgjs" width="2560" height="2197" preserveAspectRatio="none" viewBox="0 0 2560 2197"><g mask="url(&quot;#SvgjsMask1062&quot;)" fill="none"><rect width="2560" height="2197" x="0" y="0" fill="rgba(11, 25, 39, 1)"></rect><path d="M0,916.044C171.18,947.586,340.181,851.28,486.02,756.262C631.221,661.66,762.613,538.55,826.598,377.495C889.09,220.199,878.026,43.533,834.12,-119.928C793.445,-271.357,695.236,-395.093,588.281,-509.748C484.671,-620.817,371.696,-726.779,226.479,-771.315C80.313,-816.142,-76.254,-802.354,-222.706,-758.467C-368.592,-714.75,-519.585,-649.967,-603.21,-522.684C-683.832,-399.972,-667.14,-241.308,-658.788,-94.719C-651.745,28.9,-604.781,140.236,-558.889,255.236C-510.525,376.431,-467.367,496.484,-383.101,596.117C-273.442,725.774,-167.001,885.272,0,916.044" fill="#08121b"></path><path d="M2560 3100.6459999999997C2721.254 3060.319 2827.205 2920.138 2969.193 2833.717 3115.929 2744.406 3342.349 2743.016 3408.225 2584.371 3474.478 2424.818 3334.27 2256.769 3276.3540000000003 2094.004 3230.009 1963.757 3193.014 1831.416 3102.975 1726.51 3012.645 1621.2649999999999 2890.459 1557.786 2765.135 1498.374 2618.599 1428.906 2467.118 1305.063 2311.708 1351.395 2156.258 1397.739 2131.408 1612.225 2012.644 1722.713 1872.614 1852.9850000000001 1625.7069999999999 1874.1390000000001 1557.674 2052.887 1489.93 2230.875 1604.363 2424.13 1678.987 2599.3450000000003 1755.337 2778.611 1824.738 2981.2110000000002 1994.0900000000001 3077.573 2161.572 3172.871 2373.061 3147.3959999999997 2560 3100.6459999999997" fill="#0e2133"></path></g><defs><mask id="SvgjsMask1062"><rect width="2560" height="2197" fill="#ffffff"></rect></mask></defs></svg>