<svg xmlns="http://www.w3.org/2000/svg" version="1.1" xmlns:xlink="http://www.w3.org/1999/xlink" xmlns:svgjs="http://svgjs.com/svgjs" width="1440" height="560" preserveAspectRatio="none" viewBox="0 0 1440 560"><g mask="url(&quot;#SvgjsMask1055&quot;)" fill="none"><rect width="1440" height="560" x="0" y="0" fill="rgba(11, 25, 39, 1)"></rect><path d="M0,531.968C99.291,526.459,193.27,483.431,270.13,420.331C341.841,361.459,368.551,269.659,416.365,190.147C471.411,98.609,581.301,24.145,572.38,-82.296C563.493,-188.32,438.608,-239.473,373.315,-323.479C303.18,-413.715,285.249,-566.086,174.482,-594.23C62.856,-622.592,-25.64,-494.429,-132.736,-452.058C-226.945,-414.786,-346.319,-434.003,-416.119,-360.569C-486.421,-286.606,-475.149,-171.275,-494.8,-71.141C-515.629,34.995,-574.261,143.53,-534.812,244.24C-495.026,345.811,-386.173,399.734,-290.108,451.417C-199.899,499.949,-102.279,537.643,0,531.968" fill="#08121b"></path><path d="M1440 919.241C1515.773 927.746 1595.095 941.283 1663.847 908.312 1736.126 873.65 1797.796 811.09 1823.7060000000001 735.233 1848.807 661.746 1819.013 583.587 1800.525 508.164 1783.716 439.591 1767.545 369.601 1721.054 316.46500000000003 1674.685 263.469 1609.895 231.29700000000003 1541.985 212.67000000000002 1474.927 194.277 1405.39 195.769 1337.61 211.29199999999997 1266.538 227.56900000000002 1189.541 246.59500000000003 1144.276 303.754 1099.492 360.305 1121.176 442.132 1100.158 511.138 1073.935 597.231 971.19 675.2139999999999 1005.836 758.2760000000001 1040.103 840.431 1162.81 830.501 1246.273 861.4449999999999 1310.7640000000001 885.355 1371.648 911.569 1440 919.241" fill="#0e2133"></path></g><defs><mask id="SvgjsMask1055"><rect width="1440" height="560" fill="#ffffff"></rect></mask></defs></svg>