<svg id="visual" viewBox="0 0 900 600" width="900" height="600" xmlns="http://www.w3.org/2000/svg" xmlns:xlink="http://www.w3.org/1999/xlink" version="1.1"><rect x="0" y="0" width="900" height="600" fill="#e2e8f0"></rect><defs><linearGradient id="grad1_0" x1="33.3%" y1="100%" x2="100%" y2="0%"><stop offset="20%" stop-color="#f8fafc" stop-opacity="1"></stop><stop offset="80%" stop-color="#f8fafc" stop-opacity="1"></stop></linearGradient></defs><defs><linearGradient id="grad1_1" x1="33.3%" y1="100%" x2="100%" y2="0%"><stop offset="20%" stop-color="#f8fafc" stop-opacity="1"></stop><stop offset="80%" stop-color="#f0f4f8" stop-opacity="1"></stop></linearGradient></defs><defs><linearGradient id="grad1_2" x1="33.3%" y1="100%" x2="100%" y2="0%"><stop offset="20%" stop-color="#e9eef4" stop-opacity="1"></stop><stop offset="80%" stop-color="#f0f4f8" stop-opacity="1"></stop></linearGradient></defs><defs><linearGradient id="grad1_3" x1="33.3%" y1="100%" x2="100%" y2="0%"><stop offset="20%" stop-color="#e9eef4" stop-opacity="1"></stop><stop offset="80%" stop-color="#e2e8f0" stop-opacity="1"></stop></linearGradient></defs><defs><linearGradient id="grad2_0" x1="0%" y1="100%" x2="66.7%" y2="0%"><stop offset="20%" stop-color="#f8fafc" stop-opacity="1"></stop><stop offset="80%" stop-color="#f8fafc" stop-opacity="1"></stop></linearGradient></defs><defs><linearGradient id="grad2_1" x1="0%" y1="100%" x2="66.7%" y2="0%"><stop offset="20%" stop-color="#f0f4f8" stop-opacity="1"></stop><stop offset="80%" stop-color="#f8fafc" stop-opacity="1"></stop></linearGradient></defs><defs><linearGradient id="grad2_2" x1="0%" y1="100%" x2="66.7%" y2="0%"><stop offset="20%" stop-color="#f0f4f8" stop-opacity="1"></stop><stop offset="80%" stop-color="#e9eef4" stop-opacity="1"></stop></linearGradient></defs><defs><linearGradient id="grad2_3" x1="0%" y1="100%" x2="66.7%" y2="0%"><stop offset="20%" stop-color="#e2e8f0" stop-opacity="1"></stop><stop offset="80%" stop-color="#e9eef4" stop-opacity="1"></stop></linearGradient></defs><g transform="translate(900, 600)"><path d="M-459.7 0C-448.4 -57.3 -437.1 -114.6 -417.6 -173C-398.1 -231.4 -370.3 -290.9 -325.1 -325.1C-279.8 -359.2 -217.1 -368 -160 -386.2C-102.9 -404.4 -51.4 -432 0 -459.7L0 0Z" fill="#e6ebf2"></path><path d="M-344.8 0C-336.3 -43 -327.8 -85.9 -313.2 -129.7C-298.6 -173.5 -277.7 -218.2 -243.8 -243.8C-209.9 -269.4 -162.8 -276 -120 -289.6C-77.2 -303.3 -38.6 -324 0 -344.8L0 0Z" fill="#edf1f6"></path><path d="M-229.9 0C-224.2 -28.6 -218.6 -57.3 -208.8 -86.5C-199 -115.7 -185.2 -145.5 -162.5 -162.5C-139.9 -179.6 -108.5 -184 -80 -193.1C-51.4 -202.2 -25.7 -216 0 -229.9L0 0Z" fill="#f4f7fa"></path><path d="M-114.9 0C-112.1 -14.3 -109.3 -28.6 -104.4 -43.2C-99.5 -57.8 -92.6 -72.7 -81.3 -81.3C-70 -89.8 -54.3 -92 -40 -96.5C-25.7 -101.1 -12.9 -108 0 -114.9L0 0Z" fill="#f8fafc"></path></g><g transform="translate(0, 0)"><path d="M459.7 0C453.3 59.6 446.9 119.1 424.7 175.9C402.5 232.7 364.4 286.8 315.4 315.4C266.3 343.9 206.3 347 151.9 366.8C97.5 386.6 48.8 423.1 0 459.7L0 0Z" fill="#e6ebf2"></path><path d="M344.8 0C340 44.7 335.2 89.3 318.5 131.9C301.9 174.6 273.3 215.1 236.5 236.5C199.7 257.9 154.7 260.2 113.9 275.1C73.2 289.9 36.6 317.4 0 344.8L0 0Z" fill="#edf1f6"></path><path d="M229.9 0C226.7 29.8 223.5 59.6 212.4 88C201.2 116.4 182.2 143.4 157.7 157.7C133.2 172 103.2 173.5 76 183.4C48.8 193.3 24.4 211.6 0 229.9L0 0Z" fill="#f4f7fa"></path><path d="M114.9 0C113.3 14.9 111.7 29.8 106.2 44C100.6 58.2 91.1 71.7 78.8 78.8C66.6 86 51.6 86.7 38 91.7C24.4 96.6 12.2 105.8 0 114.9L0 0Z" fill="#f8fafc"></path></g></svg>