<svg id="visual" viewBox="0 0 900 600" width="900" height="600" xmlns="http://www.w3.org/2000/svg" xmlns:xlink="http://www.w3.org/1999/xlink" version="1.1"><rect x="0" y="0" width="900" height="600" fill="#020617"></rect><defs><linearGradient id="grad1_0" x1="33.3%" y1="100%" x2="100%" y2="0%"><stop offset="20%" stop-color="#0f172a" stop-opacity="1"></stop><stop offset="80%" stop-color="#0f172a" stop-opacity="1"></stop></linearGradient></defs><defs><linearGradient id="grad1_1" x1="33.3%" y1="100%" x2="100%" y2="0%"><stop offset="20%" stop-color="#0f172a" stop-opacity="1"></stop><stop offset="80%" stop-color="#0e1426" stop-opacity="1"></stop></linearGradient></defs><defs><linearGradient id="grad1_2" x1="33.3%" y1="100%" x2="100%" y2="0%"><stop offset="20%" stop-color="#0c1222" stop-opacity="1"></stop><stop offset="80%" stop-color="#0e1426" stop-opacity="1"></stop></linearGradient></defs><defs><linearGradient id="grad1_3" x1="33.3%" y1="100%" x2="100%" y2="0%"><stop offset="20%" stop-color="#0c1222" stop-opacity="1"></stop><stop offset="80%" stop-color="#090e1e" stop-opacity="1"></stop></linearGradient></defs><defs><linearGradient id="grad1_4" x1="33.3%" y1="100%" x2="100%" y2="0%"><stop offset="20%" stop-color="#060a1b" stop-opacity="1"></stop><stop offset="80%" stop-color="#090e1e" stop-opacity="1"></stop></linearGradient></defs><defs><linearGradient id="grad1_5" x1="33.3%" y1="100%" x2="100%" y2="0%"><stop offset="20%" stop-color="#060a1b" stop-opacity="1"></stop><stop offset="80%" stop-color="#020617" stop-opacity="1"></stop></linearGradient></defs><defs><linearGradient id="grad2_0" x1="0%" y1="100%" x2="66.7%" y2="0%"><stop offset="20%" stop-color="#0f172a" stop-opacity="1"></stop><stop offset="80%" stop-color="#0f172a" stop-opacity="1"></stop></linearGradient></defs><defs><linearGradient id="grad2_1" x1="0%" y1="100%" x2="66.7%" y2="0%"><stop offset="20%" stop-color="#0e1426" stop-opacity="1"></stop><stop offset="80%" stop-color="#0f172a" stop-opacity="1"></stop></linearGradient></defs><defs><linearGradient id="grad2_2" x1="0%" y1="100%" x2="66.7%" y2="0%"><stop offset="20%" stop-color="#0e1426" stop-opacity="1"></stop><stop offset="80%" stop-color="#0c1222" stop-opacity="1"></stop></linearGradient></defs><defs><linearGradient id="grad2_3" x1="0%" y1="100%" x2="66.7%" y2="0%"><stop offset="20%" stop-color="#090e1e" stop-opacity="1"></stop><stop offset="80%" stop-color="#0c1222" stop-opacity="1"></stop></linearGradient></defs><defs><linearGradient id="grad2_4" x1="0%" y1="100%" x2="66.7%" y2="0%"><stop offset="20%" stop-color="#090e1e" stop-opacity="1"></stop><stop offset="80%" stop-color="#060a1b" stop-opacity="1"></stop></linearGradient></defs><defs><linearGradient id="grad2_5" x1="0%" y1="100%" x2="66.7%" y2="0%"><stop offset="20%" stop-color="#020617" stop-opacity="1"></stop><stop offset="80%" stop-color="#060a1b" stop-opacity="1"></stop></linearGradient></defs><g transform="translate(900, 600)"><path d="M-486.7 0C-458.6 -54.7 -430.4 -109.5 -411.1 -170.3C-391.9 -231.1 -381.5 -298 -344.2 -344.2C-306.8 -390.3 -242.5 -415.8 -180.6 -436.1C-118.8 -456.4 -59.4 -471.6 0 -486.7L0 0Z" fill="#040819"></path><path d="M-405.6 0C-382.1 -45.6 -358.7 -91.2 -342.6 -141.9C-326.6 -192.6 -317.9 -248.4 -286.8 -286.8C-255.7 -325.3 -202.1 -346.5 -150.5 -363.4C-99 -380.3 -49.5 -393 0 -405.6L0 0Z" fill="#080c1c"></path><path d="M-324.5 0C-305.7 -36.5 -286.9 -73 -274.1 -113.5C-261.2 -154.1 -254.4 -198.7 -229.5 -229.5C-204.6 -260.2 -161.7 -277.2 -120.4 -290.7C-79.2 -304.2 -39.6 -314.4 0 -324.5L0 0Z" fill="#0b1020"></path><path d="M-243.4 0C-229.3 -27.4 -215.2 -54.7 -205.6 -85.1C-195.9 -115.6 -190.8 -149 -172.1 -172.1C-153.4 -195.2 -121.2 -207.9 -90.3 -218C-59.4 -228.2 -29.7 -235.8 0 -243.4L0 0Z" fill="#0d1324"></path><path d="M-162.2 0C-152.9 -18.2 -143.5 -36.5 -137 -56.8C-130.6 -77 -127.2 -99.3 -114.7 -114.7C-102.3 -130.1 -80.8 -138.6 -60.2 -145.4C-39.6 -152.1 -19.8 -157.2 0 -162.2L0 0Z" fill="#0e1628"></path><path d="M-81.1 0C-76.4 -9.1 -71.7 -18.2 -68.5 -28.4C-65.3 -38.5 -63.6 -49.7 -57.4 -57.4C-51.1 -65.1 -40.4 -69.3 -30.1 -72.7C-19.8 -76.1 -9.9 -78.6 0 -81.1L0 0Z" fill="#0f172a"></path></g><g transform="translate(0, 0)"><path d="M486.7 0C468.4 61.1 450.1 122.2 423.1 175.3C396.2 228.3 360.7 273.4 321.7 321.7C282.8 370.1 240.5 421.7 186.3 449.7C132.1 477.7 66 482.2 0 486.7L0 0Z" fill="#040819"></path><path d="M405.6 0C390.3 50.9 375.1 101.8 352.6 146.1C330.2 190.3 300.6 227.8 268.1 268.1C235.7 308.4 200.4 351.4 155.2 374.7C110.1 398.1 55 401.9 0 405.6L0 0Z" fill="#080c1c"></path><path d="M324.5 0C312.3 40.7 300 81.5 282.1 116.8C264.1 152.2 240.4 182.3 214.5 214.5C188.5 246.7 160.3 281.1 124.2 299.8C88.1 318.5 44 321.5 0 324.5L0 0Z" fill="#0b1020"></path><path d="M243.4 0C234.2 30.5 225 61.1 211.6 87.6C198.1 114.2 180.3 136.7 160.9 160.9C141.4 185 120.2 210.8 93.1 224.8C66 238.9 33 241.1 0 243.4L0 0Z" fill="#0d1324"></path><path d="M162.2 0C156.1 20.4 150 40.7 141 58.4C132.1 76.1 120.2 91.1 107.2 107.2C94.3 123.4 80.2 140.6 62.1 149.9C44 159.2 22 160.7 0 162.2L0 0Z" fill="#0e1628"></path><path d="M81.1 0C78.1 10.2 75 20.4 70.5 29.2C66 38.1 60.1 45.6 53.6 53.6C47.1 61.7 40.1 70.3 31 74.9C22 79.6 11 80.4 0 81.1L0 0Z" fill="#0f172a"></path></g></svg>