<svg xmlns="http://www.w3.org/2000/svg" version="1.1" xmlns:xlink="http://www.w3.org/1999/xlink" xmlns:svgjs="http://svgjs.com/svgjs" width="2560" height="2197" preserveAspectRatio="none" viewBox="0 0 2560 2197"><g mask="url(&quot;#SvgjsMask1173&quot;)" fill="none"><rect width="2560" height="2197" x="0" y="0" fill="rgba(11, 25, 39, 1)"></rect><path d="M0,1183.388C233.346,1195.964,483.297,1183.721,673.322,1047.709C860.387,913.815,922.115,673.818,1009.332,460.946C1093.171,256.317,1230.591,44.674,1171.601,-168.451C1113.311,-379.047,878.57,-475.781,711.182,-616.243C571.275,-733.645,446.93,-873.85,271.292,-923.937C96.378,-973.818,-81.351,-910.56,-262.474,-893.904C-492.966,-872.708,-768.832,-970.775,-937.945,-812.734C-1104.833,-656.773,-1038.068,-379.575,-1056.467,-151.897C-1073.676,61.058,-1117.824,276.131,-1042.081,475.903C-963.641,682.789,-811.296,853.281,-628.24,977.56C-442.153,1103.897,-224.595,1171.283,0,1183.388" fill="#08131d"></path><path d="M2560 3312.991C2780.251 3352.625 3017.217 3322.172 3209.2039999999997 3207.182 3403.817 3090.619 3555.946 2898.227 3617.178 2679.797 3674.882 2473.953 3558.632 2269.369 3531.5460000000003 2057.313 3503.897 1840.854 3576.5299999999997 1602.46 3456.307 1420.346 3332.2219999999998 1232.3809999999999 3112.487 1091.789 2887.485 1081.687 2670.336 1071.937 2518.807 1288.594 2316.933 1369.19 2141.105 1439.387 1922.482 1395.908 1782.141 1522.981 1637.234 1654.188 1618.509 1866.488 1561.278 2053.405 1493.361 2275.223 1309.942 2513.115 1415.77 2719.553 1522.604 2927.955 1837.493 2889.934 2045.386 2997.755 2227.6530000000002 3092.285 2357.924 3276.6279999999997 2560 3312.991" fill="#0e1f31"></path></g><defs><mask id="SvgjsMask1173"><rect width="2560" height="2197" fill="#ffffff"></rect></mask></defs></svg>