<?xml version="1.0" encoding="UTF-8" standalone="no" ?>
<!DOCTYPE svg PUBLIC "-//W3C//DTD SVG 1.1//EN" "http://www.w3.org/Graphics/SVG/1.1/DTD/svg11.dtd">
<svg xmlns="http://www.w3.org/2000/svg" xmlns:xlink="http://www.w3.org/1999/xlink" version="1.1" width="500" height="500" viewBox="0 0 500 500" xml:space="preserve">
<desc>Created with Fabric.js 5.3.0</desc>
<defs>
</defs>
<g transform="matrix(1 0 0 1 250 250.4589571283)" id="713N2yvML7hf10V5duKAK"  >
<path style="stroke: rgb(0,6,218); stroke-width: 0; stroke-dasharray: none; stroke-linecap: butt; stroke-dashoffset: 0; stroke-linejoin: miter; stroke-miterlimit: 4; fill: rgb(21,128,61); fill-rule: nonzero; opacity: 1;" vector-effect="non-scaling-stroke"  transform=" translate(-161.98576, -161.5268028717)" d="M 206.16796 5.18877 L 82.76025 152.26035000000002 L 14.184060000000002 94.71809000000002 C 17.355850000000004 87.66889000000002 21.017280000000003 80.88701000000002 25.124940000000002 74.41583000000001 L 78.96726000000001 119.59490000000002 L 179.31931000000003 -0.000009999999974752427 C 188.52025000000003 0.9802000000000253 197.49179000000004 2.7317800000000254 206.16797000000003 5.188760000000025 z M 323.97152 161.06785 C 323.97152 250.48399 251.4019 323.05361 161.98576 323.05361 C 72.56962 323.05361 0 250.48399 0 161.06785 C 0 147.61140999999998 1.64355 134.53651 4.74073 122.03307 L 86.0875 190.29111999999998 L 232.85262 15.383259999999979 C 286.78529000000003 41.68574999999998 323.97152 97.06053999999997 323.97152 161.06784999999996 z M 75.63999 81.56415 L 41.45585 52.88025 C 45.68018 48.17765 50.175509999999996 43.72333999999999 54.91718 39.541979999999995 L 74.33117 55.832249999999995 L 116.51504 5.5594699999999975 C 125.39337 2.9650099999999973 134.58655 1.1107999999999976 144.02317 0.06824999999999726 z" stroke-linecap="round" />
</g>
</svg>